<svg width="64" height="64" viewBox="0 0 64 64" fill="none" xmlns="http://www.w3.org/2000/svg">
  <defs>
    <linearGradient id="leafGradient" x1="0%" y1="0%" x2="100%" y2="100%">
      <stop offset="0%" style="stop-color:#4F7CAC;stop-opacity:1" />
      <stop offset="50%" style="stop-color:#91B3BC;stop-opacity:1" />
      <stop offset="100%" style="stop-color:#6B8E8E;stop-opacity:1" />
    </linearGradient>
    
    <linearGradient id="coreGradient" x1="0%" y1="0%" x2="100%" y2="100%">
      <stop offset="0%" style="stop-color:#2C5F2D;stop-opacity:1" />
      <stop offset="100%" style="stop-color:#4F7CAC;stop-opacity:1" />
    </linearGradient>
  </defs>
  
  <!-- Core spiral pattern -->
  <g transform="translate(32, 32)">
    <!-- Inner core -->
    <circle cx="0" cy="0" r="4" fill="url(#coreGradient)" opacity="0.9"/>
    
    <!-- Spiral leaves - simplified version -->
    <path d="M-3,-3 Q-6,-6 -9,-3 Q-6,0 -3,3 Q0,6 3,3 Q6,0 3,-3 Q0,-6 -3,-3" 
          fill="url(#leafGradient)" opacity="0.8" transform="rotate(0)"/>
    <path d="M-3,-3 Q-6,-6 -9,-3 Q-6,0 -3,3 Q0,6 3,3 Q6,0 3,-3 Q0,-6 -3,-3" 
          fill="url(#leafGradient)" opacity="0.8" transform="rotate(90)"/>
    <path d="M-3,-3 Q-6,-6 -9,-3 Q-6,0 -3,3 Q0,6 3,3 Q6,0 3,-3 Q0,-6 -3,-3" 
          fill="url(#leafGradient)" opacity="0.8" transform="rotate(180)"/>
    <path d="M-3,-3 Q-6,-6 -9,-3 Q-6,0 -3,3 Q0,6 3,3 Q6,0 3,-3 Q0,-6 -3,-3" 
          fill="url(#leafGradient)" opacity="0.8" transform="rotate(270)"/>
    
    <!-- Middle layer -->
    <path d="M-4,-4 Q-8,-8 -12,-4 Q-8,0 -4,4 Q0,8 4,4 Q8,0 4,-4 Q0,-8 -4,-4" 
          fill="url(#leafGradient)" opacity="0.7" transform="rotate(45)"/>
    <path d="M-4,-4 Q-8,-8 -12,-4 Q-8,0 -4,4 Q0,8 4,4 Q8,0 4,-4 Q0,-8 -4,-4" 
          fill="url(#leafGradient)" opacity="0.7" transform="rotate(135)"/>
    <path d="M-4,-4 Q-8,-8 -12,-4 Q-8,0 -4,4 Q0,8 4,4 Q8,0 4,-4 Q0,-8 -4,-4" 
          fill="url(#leafGradient)" opacity="0.7" transform="rotate(225)"/>
    <path d="M-4,-4 Q-8,-8 -12,-4 Q-8,0 -4,4 Q0,8 4,4 Q8,0 4,-4 Q0,-8 -4,-4" 
          fill="url(#leafGradient)" opacity="0.7" transform="rotate(315)"/>
    
    <!-- Outer layer -->
    <path d="M-5,-5 Q-10,-10 -15,-5 Q-10,0 -5,5 Q0,10 5,5 Q10,0 5,-5 Q0,-10 -5,-5" 
          fill="url(#leafGradient)" opacity="0.6" transform="rotate(22.5)"/>
    <path d="M-5,-5 Q-10,-10 -15,-5 Q-10,0 -5,5 Q0,10 5,5 Q10,0 5,-5 Q0,-10 -5,-5" 
          fill="url(#leafGradient)" opacity="0.6" transform="rotate(67.5)"/>
    <path d="M-5,-5 Q-10,-10 -15,-5 Q-10,0 -5,5 Q0,10 5,5 Q10,0 5,-5 Q0,-10 -5,-5" 
          fill="url(#leafGradient)" opacity="0.6" transform="rotate(112.5)"/>
    <path d="M-5,-5 Q-10,-10 -15,-5 Q-10,0 -5,5 Q0,10 5,5 Q10,0 5,-5 Q0,-10 -5,-5" 
          fill="url(#leafGradient)" opacity="0.6" transform="rotate(157.5)"/>
    <path d="M-5,-5 Q-10,-10 -15,-5 Q-10,0 -5,5 Q0,10 5,5 Q10,0 5,-5 Q0,-10 -5,-5" 
          fill="url(#leafGradient)" opacity="0.6" transform="rotate(202.5)"/>
    <path d="M-5,-5 Q-10,-10 -15,-5 Q-10,0 -5,5 Q0,10 5,5 Q10,0 5,-5 Q0,-10 -5,-5" 
          fill="url(#leafGradient)" opacity="0.6" transform="rotate(247.5)"/>
    <path d="M-5,-5 Q-10,-10 -15,-5 Q-10,0 -5,5 Q0,10 5,5 Q10,0 5,-5 Q0,-10 -5,-5" 
          fill="url(#leafGradient)" opacity="0.6" transform="rotate(292.5)"/>
    <path d="M-5,-5 Q-10,-10 -15,-5 Q-10,0 -5,5 Q0,10 5,5 Q10,0 5,-5 Q0,-10 -5,-5" 
          fill="url(#leafGradient)" opacity="0.6" transform="rotate(337.5)"/>
  </g>
  
  <!-- Inner light core -->
  <circle cx="32" cy="32" r="2" fill="#E8F4F8" opacity="0.9"/>
  <circle cx="32" cy="32" r="1" fill="#FFFFFF" opacity="1"/>
</svg> 